<?xml version="1.0" standalone="no"?><!DOCTYPE svg PUBLIC "-//W3C//DTD SVG 1.1//EN" "http://www.w3.org/Graphics/SVG/1.1/DTD/svg11.dtd"><svg t="1622015914882" class="icon" viewBox="0 0 1024 1024" version="1.1" xmlns="http://www.w3.org/2000/svg" p-id="6187" xmlns:xlink="http://www.w3.org/1999/xlink" width="100%" height="100%"><defs><style type="text/css"></style></defs><path d="M791.487729 544.095473c-1.279999-129.695874 105.759898-191.871814 110.527893-194.975811-60.159942-88.031915-153.855851-100.063903-187.231819-101.471902-79.743923-8.063992-155.583849 46.943955-196.06381 46.943955-40.351961 0-102.8159-45.759956-168.959836-44.543957-86.911916 1.279999-167.071838 50.527951-211.807795 128.383876-90.303913 156.703848-23.135978 388.831623 64.895937 515.9355 43.007958 62.20794 94.303909 132.063872 161.631843 129.567874 64.831937-2.591997 89.375913-41.951959 167.743837-41.951959s100.415903 41.951959 169.055836 40.671961c69.759932-1.311999 113.98389-63.391939 156.703848-125.791878 49.375952-72.15993 69.727932-142.047862 70.911931-145.631859-1.535999-0.703999-136.063868-52.223949-137.407867-207.135799zM662.559854 163.519842c35.743965-43.359958 59.871942-103.5199 53.279948-163.519842-51.48795 2.111998-113.88789 34.303967-150.815854 77.535925-33.151968 38.367963-62.14394 99.615903-54.367947 158.431847 57.471944 4.479996 116.127888-29.215972 151.903853-72.44793z" p-id="6188" fill="#000000"></path></svg>